<svg xmlns="http://www.w3.org/2000/svg" viewBox="0 0 150 150" id="Aws--Streamline-Font-Awesome" height="150" width="150">
  <desc>
    Aws Streamline Icon: https://streamlinehq.com
  </desc>
<!--! Font Awesome Free 6.5.2 by @fontawesome - https://fontawesome.com License - https://fontawesome.com/license/free (Icons: CC BY 4.0, Fonts: SIL OFL 1.1, Code: MIT License) Copyright 2024 Fonticons, Inc.-->
  <path d="M42.9377109375 62.8312265625c-0.165375 5.202328125 2.434640625 7.506046874999999 2.498953125 8.969132812500002 -0.0621328125 0.6042421875 -0.4130859375 1.1409375000000002 -0.9416953125 1.4401171875l-2.9399531249999997 2.0579765625c-0.380484375 0.26671875 -0.828984375 0.41967187499999997 -1.2931171874999998 0.441 -0.098765625 -0.00459375 -1.8811171875 0.4203046875 -4.7039296875 -5.882203125 -3.4901015625 4.3565390625000004 -8.79909375 6.853734375 -14.3805 6.7641796874999995 -3.7392421875 0.204421875 -13.872890625 -2.122265625 -13.351523437500001 -12.9105234375 -0.3651796875 -8.792296875000002 7.8230390625 -14.254171874999999 16.2914765625 -13.7925 1.6307578125000002 0.00459375 4.96115625 0.084984375 10.792828125 1.4401171875v-3.587671875c0.617859375 -6.0774140625 -3.3763359375 -10.792828125 -10.2921328125 -10.0854140625 -0.5512265625 0.002296875 -4.4558437500000005 -0.1148203125 -10.5286875 2.3221171875 -1.6904765625 0.7763203125 -1.9063828125000002 0.6476953125 -2.4690937500000003 0.6476953125 -1.7019609375 0 -1.0014375 -4.93359375 -0.67528125 -5.55834375 1.1966484375 -1.4699765624999999 8.236453125 -4.2146953125 15.145335937499999 -4.1756484375 4.6195078125 -0.40853906250000005 9.214265625 1.0171640625 12.7910859375 3.9689296875 2.938125 3.2864765625 4.4044453125 7.631507812500001 4.058507812499999 12.02625l-0.002296875 15.914789062499999Zm-19.849265625 7.4394374999999995c7.448625 -0.10792968750000001 10.6021875 -4.586765625 11.321109375 -6.9984609375 0.5650078125 -2.3083125 0.4708359375 -3.7691015624999995 0.4708359375 -6.293320312500001 -2.22103125 -0.532875 -5.418234375 -1.1139609375000001 -9.0862734375 -1.1185546875 -3.47971875 -0.26184375 -9.8350546875 1.2931171874999998 -9.587015625000001 7.409578125 -0.2847890625 3.85640625 2.5541015625 7.2120703125 6.881343749999999 7.0007578125Zm39.25753125 5.2942265625c-1.8053203125000001 0.165375 -2.645953125 -1.1162578125 -2.912390625 -2.3818359375l-11.43825 -37.8174140625c-0.222796875 -0.63853125 -0.369796875 -1.2977109375 -0.441 -1.9706953125000002 -0.08784375 -0.5777109375 0.308953125 -1.11740625 0.88659375 -1.2058359374999998 0.055125 -0.0091875 -0.48923437500000005 0 5.110453125 0 2.0166328125 -0.202125 2.673515625 1.3849921875 2.88253125 2.3818359375l8.204296875 32.3463515625 7.616320312499999 -32.3463515625c0.12173437499999999 -0.73959375 0.67528125 -2.5426171875 2.9399531249999997 -2.3519765625h3.9413671875000005c0.49842187499999996 -0.04134375 2.5517812500000003 -0.11484375 2.912390625 2.3818359375l7.6760390625 32.759765625 8.4684375 -32.759765625c0.11025 -0.50071875 0.6247265625 -2.6115234375 2.912390625 -2.3818359375h4.5293671875c0.1952109375 -0.029859375000000004 1.4125546875000001 -0.186046875 1.2058359374999998 1.9706953125000002 -0.098765625 0.424921875 0.7832109374999999 -2.448421875 -12.115828125 39.02325 -0.264140625 1.265578125 -1.1070703124999999 2.5472109375 -2.912390625 2.3818359375h-4.2927890625c-2.512734375 0.264140625 -2.87334375 -2.2187578125 -2.912390625 -2.4691171875l-7.616296875000001 -31.4965078125 -7.5290390625 31.464374999999997c-0.03675 0.2503359375 -0.397359375 2.733234375 -2.912390625 2.4690937500000003h-4.203210937500001Zm62.813906249999995 1.2931171874999998c-1.3505390625 0.002296875 -7.7908828125000005 -0.06890625 -13.1746640625 -2.8228125 -1.09678125 -0.464390625 -1.805109375 -1.5445546874999998 -1.7938359375 -2.7355312499999997V68.83054687500001c0 -1.9408124999999998 1.4240390625 -1.584796875 2.0281171875 -1.3528359375 2.306015625 0.93253125 3.7851796874999994 1.6399453124999999 6.6171796875 2.2049765624999997 8.417906250000001 1.7295234375 12.120421875 -0.52828125 13.0276640625 -1.0289765625 3.02034375 -1.7938359375 3.25921875 -5.89828125 1.2058359374999998 -8.0274609375 -2.4070781250000004 -2.01890625 -3.5554921875 -2.094703125 -12.2030859375 -4.823343749999999 -1.0657265625 -0.296296875 -10.0371796875 -3.126 -10.0578515625 -12.02625 -0.140109375 -6.4862578125 5.753578125 -12.9036328125 15.9676171875 -12.8508046875 2.9100937499999997 -0.002296875 10.664203125 0.9485859375 12.7635234375 3.587671875 0.310078125 0.4800234375 0.46396875 1.0450546875 0.441 1.6169765624999999v2.32209375c0 1.0197890625 -0.37209375 1.5296953125 -1.118578125 1.5296953125 -1.77084375 -0.19753125 -4.912921875 -2.5655625 -11.29125 -2.4690937500000003 -1.5825234375000001 -0.0826875 -9.162070312500001 0.2089921875 -8.822156249999999 5.735203125 -0.0987421875 4.35478125 6.111890625 5.987835937500001 6.821625 6.1761796875 8.374265625000001 2.519625 11.174109375 2.9376562500000003 14.4976171875 6.7940390625 3.936796875 5.1104765625 1.8145078125 11.0937421875 0.999140625 12.7336640625 -4.3823671875 8.61084375 -15.714960937499999 7.910320312500001 -15.9078984375 7.9057265625Zm9.2332734375 24.0846328125c-16.084734375 11.8792265625 -39.434390625 18.2024296875 -59.370937500000004 18.2024296875 -26.9004375 0.1773984375 -52.8942890625 -9.713976562500001 -72.87175781250001 -27.729703125 -1.4998359375 -1.3528359375 -0.176859375 -3.206390625 1.6468359375000001 -2.1751171875 22.160929687499998 12.6766171875 47.251757812499996 19.337296875 72.7821796875 19.3210078125 19.065421875 -0.1022578125 37.922859375 -3.9699140625000005 55.4892890625 -11.380828125 2.705671875 -1.1484375 5.000203125 1.791515625 2.3243906250000004 3.7622109375Zm6.704484375 -7.6461796875c-2.0579765625 -2.645953125 -13.6156640625 -1.2356953125 -18.7904296875 -0.6178359375 -1.5595546875 0.176859375 -1.8236953125000002 -1.176 -0.411140625 -2.1751171875 9.2034375 -6.4701796875 24.3189140625 -4.6166484375 26.055328125 -2.4415312499999997 1.7341171875 2.1750937500000003 -0.47085937499999997 17.320453125 -9.086296875 24.5554921875 -1.3229765625 1.1185546875 -2.58853125 0.5282578124999999 -2.0005312500000003 -0.9417187499999999 1.9385156250000002 -4.880765625 6.2910234375 -15.7310390625 4.2330703125 -18.3792890625Z" fill="#000000" stroke-width="0.2344"></path>
</svg>