<svg xmlns="http://www.w3.org/2000/svg"  viewBox="0 0 50 50" width="150px" height="150px"><path d="M 25 3.2753906 C 24.6275 3.2753906 24.255156 3.3592969 23.910156 3.5292969 L 8.4492188 10.990234 C 7.7592188 11.330234 7.2598438 11.949219 7.0898438 12.699219 L 3.2695312 29.480469 C 3.0995313 30.230469 3.28 31.009609 3.75 31.599609 L 14.449219 45.060547 C 14.929219 45.660547 15.659922 46.009766 16.419922 46.009766 L 33.580078 46.009766 C 34.340078 46.009766 35.070781 45.660547 35.550781 45.060547 L 46.25 31.599609 C 46.72 31.009609 46.900469 30.230469 46.730469 29.480469 L 42.910156 12.699219 C 42.740156 11.949219 42.240781 11.330234 41.550781 10.990234 L 26.089844 3.5292969 C 25.744844 3.3592969 25.3725 3.2753906 25 3.2753906 z M 24.992188 8.484375 C 25.415469 8.4834375 25.82 8.728125 26 9.140625 C 26.12 9.430625 26.11 9.74 26 10 C 25.77 10.54 25.690859 11.079141 25.630859 11.619141 C 25.610859 11.899141 25.599375 12.169453 25.609375 12.439453 C 25.579375 12.709453 25.719922 12.98 25.919922 13.25 C 26.129922 13.52 26.149688 13.790547 26.179688 14.060547 C 28.999688 14.330547 31.539453 15.580469 33.439453 17.480469 C 33.669453 17.330469 33.890234 17.170156 34.240234 17.160156 C 34.570234 17.140156 34.870547 17.080859 35.060547 16.880859 C 35.270547 16.710859 35.469922 16.529844 35.669922 16.339844 C 36.049922 15.959844 36.419453 15.549297 36.689453 15.029297 C 36.959453 14.489297 37.620391 14.280547 38.150391 14.560547 C 38.690391 14.830547 38.899141 15.489531 38.619141 16.019531 C 38.479141 16.299531 38.240938 16.490313 37.960938 16.570312 C 37.400937 16.730313 36.930469 17.020313 36.480469 17.320312 C 36.260469 17.480313 36.039844 17.640313 35.839844 17.820312 C 35.609844 17.970312 35.490391 18.250312 35.400391 18.570312 C 35.330391 18.910312 35.139219 19.100781 34.949219 19.300781 C 36.249219 21.210781 37 23.52 37 26 C 37 26.38 36.979219 26.760859 36.949219 27.130859 L 36.960938 27.130859 C 37.220937 27.210859 37.480938 27.280781 37.710938 27.550781 C 37.940937 27.790781 38.179219 27.970234 38.449219 27.990234 C 38.719219 28.050234 38.98 28.089141 39.25 28.119141 C 39.8 28.169141 40.339922 28.190547 40.919922 28.060547 C 41.509922 27.930547 42.090703 28.300625 42.220703 28.890625 C 42.350703 29.470625 41.980625 30.049688 41.390625 30.179688 C 41.090625 30.249688 40.790781 30.179297 40.550781 30.029297 C 40.060781 29.699297 39.539531 29.519141 39.019531 29.369141 C 38.759531 29.299141 38.490469 29.239219 38.230469 29.199219 C 37.970469 29.119219 37.669141 29.199844 37.369141 29.339844 C 37.069141 29.509844 36.799531 29.480938 36.519531 29.460938 L 36.490234 29.460938 C 35.630234 32.310938 33.740234 34.72 31.240234 36.25 L 31.240234 36.259766 C 31.320234 36.519766 31.410078 36.769375 31.330078 37.109375 C 31.260078 37.439375 31.250625 37.740469 31.390625 37.980469 C 31.500625 38.220469 31.62 38.469219 31.75 38.699219 C 32.02 39.169219 32.319766 39.639297 32.759766 40.029297 C 33.199766 40.439297 33.230078 41.120312 32.830078 41.570312 C 32.420078 42.010312 31.739063 42.040625 31.289062 41.640625 C 31.059062 41.430625 30.939453 41.149375 30.939453 40.859375 C 30.919453 40.269375 30.769844 39.750469 30.589844 39.230469 C 30.499844 38.980469 30.399297 38.730469 30.279297 38.480469 C 30.189297 38.220469 29.950156 38.039141 29.660156 37.869141 C 29.380156 37.719141 29.239609 37.509297 29.099609 37.279297 C 27.819609 37.749297 26.44 38 25 38 C 23.58 38 22.220937 37.750781 20.960938 37.300781 C 20.840937 37.520781 20.699922 37.719141 20.419922 37.869141 C 20.129922 38.029141 19.890781 38.220469 19.800781 38.480469 C 19.680781 38.720469 19.570469 38.970703 19.480469 39.220703 C 19.300469 39.740703 19.140859 40.259609 19.130859 40.849609 C 19.110859 41.449609 18.6 41.920391 18 41.900391 C 17.4 41.880391 16.929219 41.379297 16.949219 40.779297 C 16.959219 40.469297 17.100547 40.199766 17.310547 40.009766 C 17.750547 39.609766 18.050078 39.149453 18.330078 38.689453 C 18.460078 38.449453 18.579453 38.210938 18.689453 37.960938 C 18.829453 37.730938 18.819766 37.419844 18.759766 37.089844 C 18.689766 36.779844 18.759844 36.530781 18.839844 36.300781 C 16.329844 34.790781 14.409297 32.389062 13.529297 29.539062 C 13.299297 29.559062 13.080312 29.559687 12.820312 29.429688 C 12.510312 29.299688 12.220938 29.220547 11.960938 29.310547 C 11.690938 29.360547 11.429922 29.429766 11.169922 29.509766 C 10.649922 29.679766 10.140156 29.870937 9.6601562 30.210938 C 9.1701562 30.560938 8.490625 30.439219 8.140625 29.949219 C 7.800625 29.459219 7.9103906 28.779453 8.4003906 28.439453 C 8.6503906 28.259453 8.9602344 28.2 9.2402344 28.25 C 9.8102344 28.37 10.360391 28.329766 10.900391 28.259766 C 11.170391 28.229766 11.439219 28.179375 11.699219 28.109375 C 11.969219 28.089375 12.209687 27.890625 12.429688 27.640625 C 12.619687 27.420625 12.840547 27.33 13.060547 27.25 C 13.020547 26.84 13 26.42 13 26 C 13 23.44 13.799922 21.069141 15.169922 19.119141 C 14.989922 18.939141 14.82 18.759453 14.75 18.439453 C 14.66 18.119453 14.540547 17.839453 14.310547 17.689453 C 14.100547 17.509453 13.889922 17.349219 13.669922 17.199219 C 13.209922 16.899219 12.739687 16.619219 12.179688 16.449219 C 11.599687 16.289219 11.259687 15.679375 11.429688 15.109375 C 11.599687 14.529375 12.199297 14.199375 12.779297 14.359375 C 13.069297 14.449375 13.309453 14.650391 13.439453 14.900391 C 13.709453 15.420391 14.080703 15.830937 14.470703 16.210938 C 14.660703 16.400938 14.870078 16.580234 15.080078 16.740234 C 15.270078 16.940234 15.570391 16.999531 15.900391 17.019531 C 16.250391 17.029531 16.469219 17.180078 16.699219 17.330078 L 16.710938 17.339844 C 18.590937 15.519844 21.070312 14.320547 23.820312 14.060547 C 23.850313 13.790547 23.870078 13.52 24.080078 13.25 C 24.280078 12.98 24.420625 12.709453 24.390625 12.439453 C 24.400625 12.169453 24.389141 11.899141 24.369141 11.619141 C 24.309141 11.079141 24.23 10.54 24 10 C 23.76 9.45 24.020312 8.8103125 24.570312 8.5703125 C 24.707812 8.5128125 24.851094 8.4846875 24.992188 8.484375 z M 23.560547 16.109375 C 21.630547 16.379375 19.880469 17.209688 18.480469 18.429688 L 18.789062 18.619141 C 19.719062 19.199141 20.619531 19.809922 21.519531 20.419922 C 22.039531 20.749922 22.529531 21.120703 23.019531 21.470703 C 23.059531 20.900703 23.109922 20.32 23.169922 19.75 C 23.269922 18.67 23.369766 17.58 23.509766 16.5 L 23.560547 16.109375 z M 26.439453 16.109375 L 26.490234 16.5 C 26.630234 17.58 26.730078 18.67 26.830078 19.75 C 26.870078 20.18 26.909453 20.599297 26.939453 21.029297 C 26.944453 21.111797 26.971953 21.184766 27.013672 21.244141 C 27.055391 21.303516 27.111406 21.350859 27.175781 21.380859 C 27.304531 21.440859 27.464609 21.434844 27.599609 21.339844 C 27.939609 21.089844 28.290391 20.839609 28.650391 20.599609 C 29.550391 19.989609 30.439375 19.379063 31.359375 18.789062 L 31.699219 18.580078 C 31.520469 18.417578 31.337031 18.260625 31.146484 18.111328 C 30.955938 17.962031 30.758203 17.820859 30.556641 17.685547 C 30.355078 17.550234 30.149297 17.421328 29.9375 17.300781 C 29.725703 17.180234 29.508359 17.067891 29.287109 16.962891 C 29.065859 16.857891 28.84125 16.760547 28.611328 16.671875 C 28.381406 16.583203 28.146016 16.503203 27.908203 16.431641 C 27.670391 16.360078 27.428516 16.297812 27.183594 16.244141 C 26.938672 16.190469 26.690703 16.144375 26.439453 16.109375 z M 16.580078 20.609375 C 16.330078 20.996875 16.107109 21.403672 15.912109 21.826172 C 15.814609 22.037422 15.723437 22.253594 15.640625 22.472656 C 15.557813 22.691719 15.481563 22.914375 15.414062 23.140625 C 15.346562 23.366875 15.287891 23.595313 15.236328 23.828125 C 15.184766 24.060937 15.140469 24.298359 15.105469 24.537109 C 15.070469 24.775859 15.045156 25.015703 15.027344 25.259766 C 15.009531 25.503828 15 25.75125 15 26 C 15 26.19 15.009766 26.370781 15.009766 26.550781 L 15.480469 26.390625 C 16.510469 26.020625 17.550078 25.699375 18.580078 25.359375 C 19.070078 25.199375 19.560781 25.060156 20.050781 24.910156 C 20.205781 24.865156 20.304688 24.745625 20.335938 24.609375 C 20.351562 24.54125 20.350547 24.469297 20.330078 24.400391 C 20.309609 24.331484 20.270938 24.265938 20.210938 24.210938 C 19.870938 23.900938 19.540937 23.589766 19.210938 23.259766 C 18.430937 22.489766 17.660391 21.729453 16.900391 20.939453 L 16.580078 20.609375 z M 33.539062 20.800781 L 33.269531 21.089844 C 32.519531 21.889844 31.750469 22.659688 30.980469 23.429688 C 30.490469 23.929688 29.959219 24.410391 29.449219 24.900391 C 30.129219 25.070391 30.810234 25.249219 31.490234 25.449219 C 32.540234 25.749219 33.579141 26.040859 34.619141 26.380859 L 34.990234 26.5 C 35.000234 26.34 35 26.17 35 26 C 35 25.5225 34.966563 25.052812 34.902344 24.59375 C 34.838125 24.134688 34.743516 23.68625 34.619141 23.25 C 34.494766 22.81375 34.340625 22.389531 34.160156 21.980469 C 33.979687 21.571406 33.771563 21.178281 33.539062 20.800781 z M 24.376953 24.074219 C 24.187953 24.074219 24.012156 24.162594 23.910156 24.308594 L 23.123047 25.283203 C 23.022047 25.414203 22.978813 25.604297 23.007812 25.779297 L 23.285156 26.988281 C 23.314156 27.177281 23.445469 27.323156 23.605469 27.410156 L 24.726562 27.933594 C 24.886563 28.020594 25.091953 28.020594 25.251953 27.933594 L 26.373047 27.410156 C 26.533047 27.323156 26.664359 27.177281 26.693359 26.988281 L 26.970703 25.779297 C 27.000703 25.604297 26.955516 25.414203 26.853516 25.283203 L 26.066406 24.308594 C 25.964406 24.162594 25.788609 24.074219 25.599609 24.074219 L 24.376953 24.074219 z M 20.769531 28.769531 C 20.299531 28.829531 19.839141 28.899219 19.369141 28.949219 C 18.279141 29.079219 17.209141 29.210547 16.119141 29.310547 L 15.580078 29.359375 C 15.671328 29.614375 15.771758 29.866211 15.882812 30.111328 C 15.993867 30.356445 16.11625 30.595859 16.246094 30.830078 C 16.375937 31.064297 16.514492 31.29332 16.662109 31.515625 C 16.957344 31.960234 17.28625 32.378672 17.646484 32.769531 C 17.826602 32.964961 18.014141 33.153516 18.208984 33.333984 C 18.403828 33.514453 18.605898 33.68707 18.814453 33.851562 C 19.023008 34.016055 19.239687 34.172812 19.460938 34.320312 L 19.599609 33.900391 C 19.939609 32.860391 20.299922 31.840547 20.669922 30.810547 C 20.839922 30.310547 21.020938 29.820312 21.210938 29.320312 C 21.240938 29.247813 21.247734 29.174531 21.236328 29.105469 C 21.224922 29.036406 21.193516 28.971719 21.150391 28.917969 C 21.107266 28.864219 21.051484 28.821484 20.986328 28.794922 C 20.921172 28.768359 20.847031 28.757031 20.769531 28.769531 z M 29.410156 28.910156 C 29.335156 28.900156 29.264141 28.910469 29.201172 28.9375 C 29.138203 28.964531 29.082891 29.007422 29.041016 29.060547 C 28.999141 29.113672 28.970703 29.177813 28.958984 29.246094 C 28.947266 29.314375 28.952969 29.388438 28.980469 29.460938 C 29.150469 29.910937 29.310703 30.360312 29.470703 30.820312 C 29.820703 31.840312 30.179766 32.870156 30.509766 33.910156 L 30.619141 34.269531 C 30.836641 34.120781 31.049082 33.963691 31.253906 33.798828 C 31.45873 33.633965 31.656484 33.461328 31.847656 33.28125 C 32.23 32.921094 32.584375 32.532812 32.90625 32.117188 C 33.067188 31.909375 33.220879 31.694941 33.365234 31.474609 C 33.50959 31.254277 33.644688 31.026875 33.771484 30.794922 C 33.898281 30.562969 34.016738 30.324707 34.125 30.082031 C 34.233262 29.839355 34.331172 29.592344 34.419922 29.339844 L 34.070312 29.320312 C 32.980312 29.250312 31.900547 29.150781 30.810547 29.050781 C 30.340547 29.010781 29.880156 28.960156 29.410156 28.910156 z M 25.074219 30.882812 C 25.002969 30.882812 24.932578 30.90125 24.869141 30.9375 C 24.805703 30.97375 24.750937 31.027109 24.710938 31.099609 C 24.480937 31.529609 24.240234 31.949375 23.990234 32.359375 C 23.440234 33.299375 22.890547 34.240156 22.310547 35.160156 L 22.060547 35.560547 C 22.293047 35.633047 22.528047 35.697109 22.767578 35.751953 C 23.246641 35.861641 23.738672 35.935469 24.240234 35.972656 C 24.491016 35.99125 24.745 36 25 36 C 25.2625 36 25.523125 35.990547 25.78125 35.970703 C 26.039375 35.950859 26.294375 35.920234 26.546875 35.880859 C 26.799375 35.841484 27.049297 35.792969 27.294922 35.734375 C 27.540547 35.675781 27.782031 35.606797 28.019531 35.529297 L 27.789062 35.150391 C 27.209063 34.230391 26.670859 33.279844 26.130859 32.339844 C 25.890859 31.929844 25.659453 31.519609 25.439453 31.099609 C 25.359453 30.954609 25.216719 30.882812 25.074219 30.882812 z"/></svg>