<svg role="img" viewBox="0 0 150 150" xmlns="http://www.w3.org/2000/svg" id="Springboot--Streamline-Simple-Icons" height="150" width="150">
  <desc>
    Springboot Streamline Icon: https://streamlinehq.com
  </desc>
  <title>Spring Boot</title>
  <path d="m148.08125 66.91125 -29.562500000000004 -51.1525c-2.55875 -4.44125 -8.85375 -8.088750000000001 -14.00125 -8.088750000000001H45.453125c-5.1187499999999995 0 -11.442499999999999 3.6475 -14.00125 8.088750000000001L1.91875 66.91125c-2.5593749999999997 4.44125 -2.5593749999999997 11.70625 0 16.148125l29.5325 51.18125c2.55875 4.441875 8.85375 8.089375 14.00125 8.089375h59.09375c5.1187499999999995 0 11.4125 -3.6475 14.00125 -8.088750000000001l29.5325 -51.18125c2.5593749999999997 -4.441875 2.5593749999999997 -11.7075 0 -16.14875zM68.601875 35.966875c0 -3.353125 2.7356249999999998 -6.08875 6.08875 -6.08875s6.08875 2.7356249999999998 6.08875 6.08875v36.385625c0 3.35375 -2.7356249999999998 6.08875 -6.08875 6.08875s-6.08875 -2.735 -6.08875 -6.08875zm6.08875 77.68374999999999c-22.766875 0 -41.298125 -18.53125 -41.298125 -41.298125 0.029375000000000002 -13.059999999999999 6.20625 -25.325625000000002 16.678124999999998 -33.15a5.4106250000000005 5.4106250000000005 0 0 1 7.588749999999999 1.1175 5.4106250000000005 5.4106250000000005 0 0 1 -1.1175 7.5893749999999995c-13.50125 10.03 -16.325 29.12 -6.295000000000001 42.621249999999996 10.030625 13.501875 29.120625 16.325 42.621874999999996 6.295000000000001 7.73625 -5.735625 12.295625000000001 -14.825 12.295625000000001 -24.473125a30.607499999999998 30.607499999999998 0 0 0 -12.413124999999999 -24.53125c-2.4125 -1.765 -2.9125 -5.1775 -1.1475000000000002 -7.5893749999999995 1.765 -2.4125 5.176875 -2.9125 7.5893749999999995 -1.146875 10.559375 7.7943750000000005 16.76625 20.14875 16.795625 33.2675 0 22.79625 -18.53125 41.298125 -41.298125 41.298125z" fill="#000000" stroke-width="6.25"></path>
</svg>